<?xml version="1.0" standalone="no"?>
<!DOCTYPE svg PUBLIC "-//W3C//DTD SVG 20010904//EN"
 "http://www.w3.org/TR/2001/REC-SVG-20010904/DTD/svg10.dtd">
<svg version="1.0" xmlns="http://www.w3.org/2000/svg"
 width="281.000000pt" height="281.000000pt" viewBox="0 0 281.000000 281.000000"
 preserveAspectRatio="xMidYMid meet">
<metadata>
Created by potrace 1.11, written by Peter Selinger 2001-2013
</metadata>
<g transform="translate(0.000000,281.000000) scale(0.100000,-0.100000)"
fill="#000000" stroke="none">
<path d="M800 2280 c5 -10 10 -34 10 -53 0 -19 7 -40 15 -47 18 -15 20 -104 4
-147 -5 -15 -11 -43 -13 -62 -2 -26 -11 -42 -36 -61 -19 -14 -49 -39 -67 -57
-19 -18 -44 -35 -56 -39 -12 -3 -47 -30 -77 -58 -30 -29 -67 -60 -83 -70 -15
-9 -37 -32 -50 -51 -14 -23 -30 -35 -45 -35 -13 0 -20 -4 -17 -10 3 -5 -8 -22
-26 -37 -18 -16 -51 -47 -75 -70 -24 -24 -50 -43 -59 -43 -9 0 -14 -4 -11 -9
4 -5 -13 -33 -36 -62 -74 -90 -82 -101 -119 -172 l-36 -69 19 -105 c13 -72 15
-109 8 -117 -7 -9 -5 -19 5 -32 8 -10 15 -32 15 -49 0 -16 7 -41 15 -55 8 -14
30 -58 49 -97 22 -46 41 -73 51 -73 9 0 34 -10 57 -21 59 -30 171 -23 225 13
21 14 59 37 85 52 27 15 55 40 63 55 15 29 101 111 116 111 5 0 22 30 39 66
16 37 41 78 54 91 14 14 37 55 51 93 14 38 39 83 55 101 26 30 47 97 43 138
-1 8 9 27 22 42 12 15 26 45 30 66 4 21 10 40 14 43 10 7 69 197 77 250 3 25
13 62 21 83 42 106 167 -23 133 -137 -7 -23 -13 -95 -15 -161 -2 -116 -13
-165 -37 -165 -7 0 -6 -5 2 -15 10 -12 7 -25 -14 -71 -22 -46 -25 -62 -17 -83
5 -14 12 -91 14 -171 5 -150 17 -204 59 -259 10 -13 18 -32 18 -42 0 -19 52
-63 115 -97 22 -12 101 -38 175 -57 74 -20 153 -44 175 -55 35 -18 42 -18 62
-5 12 8 44 15 70 14 26 0 143 3 258 6 217 7 306 21 324 52 6 11 16 14 31 10
13 -3 30 -2 39 2 9 5 39 11 68 14 29 3 58 9 65 13 7 4 28 10 48 14 24 4 36 11
39 25 2 11 11 25 20 32 11 8 17 30 18 75 1 35 3 74 4 88 1 14 -16 57 -39 98
-23 41 -42 84 -42 97 0 16 -12 33 -35 51 -22 16 -35 35 -35 49 0 28 -63 123
-129 194 -40 44 -54 53 -75 49 -20 -4 -27 0 -37 23 -14 34 -35 40 -23 7 4 -13
9 -61 11 -108 2 -47 8 -141 14 -209 13 -142 6 -181 -42 -236 -25 -29 -35 -33
-60 -28 -16 3 -35 1 -41 -4 -25 -20 -290 -36 -518 -32 -204 4 -229 6 -265 25
-39 21 -40 22 -43 82 -2 34 2 85 9 114 7 29 11 91 10 138 -2 62 4 113 23 190
55 234 59 260 60 382 1 115 -1 126 -25 168 -14 25 -29 57 -33 73 -4 17 -13 27
-25 27 -10 0 -21 7 -25 15 -13 35 -68 55 -149 55 -96 0 -132 15 -184 77 -21
25 -46 55 -56 67 -10 11 -22 26 -25 32 -12 18 -67 52 -98 60 -16 4 -33 10 -39
14 -5 4 -27 10 -48 13 -34 5 -36 4 -27 -13z m-74 -737 c-3 -26 -15 -60 -26
-75 -11 -15 -20 -39 -20 -53 0 -14 -7 -37 -16 -50 -9 -14 -17 -44 -19 -69 -1
-24 -12 -56 -23 -72 -10 -16 -32 -65 -48 -108 -17 -46 -42 -94 -61 -113 -17
-19 -34 -44 -37 -58 -3 -13 -37 -61 -74 -107 -70 -86 -91 -98 -148 -84 -36 9
-79 82 -98 165 -18 77 -15 119 11 159 8 13 12 26 9 29 -3 3 10 26 29 51 19 25
35 48 35 53 0 4 13 10 30 14 36 8 80 41 80 61 0 8 9 14 19 14 28 0 67 38 94
90 42 83 69 116 111 133 23 9 46 17 51 17 6 0 24 11 40 25 17 13 38 24 49 25
16 0 17 -6 12 -47z"/>
<path d="M1882 2152 c-19 -3 -23 -8 -17 -25 3 -12 8 -35 10 -52 10 -71 67
-176 133 -242 23 -24 49 -43 58 -43 8 0 28 -7 44 -15 25 -13 34 -13 52 -3 44
25 58 41 58 70 0 41 -80 188 -102 188 -10 0 -28 18 -40 40 -13 22 -29 40 -36
40 -7 0 -27 7 -45 17 -39 20 -84 30 -115 25z"/>
<path d="M1630 1685 c0 -8 -5 -24 -12 -35 -10 -16 -9 -23 7 -40 16 -17 21 -40
23 -99 1 -42 4 -99 5 -127 l2 -51 53 -21 c30 -13 74 -22 103 -22 43 0 55 5 81
30 33 34 33 53 -3 123 -10 21 -19 44 -19 53 0 19 -88 114 -106 114 -8 0 -14 4
-14 10 0 10 -98 80 -112 80 -5 0 -8 -7 -8 -15z"/>
</g>
</svg>
